<mxfile host="Electron" agent="Mozilla/5.0 (Windows NT 10.0; Win64; x64) AppleWebKit/537.36 (KHTML, like Gecko) draw.io/26.1.1 Chrome/132.0.6834.210 Electron/34.3.3 Safari/537.36" version="26.1.1">
  <diagram name="Page-1" id="Zu9zAqwZygRu-OMtc46L">
    <mxGraphModel dx="648" dy="439" grid="1" gridSize="10" guides="1" tooltips="1" connect="1" arrows="1" fold="1" page="1" pageScale="1" pageWidth="850" pageHeight="1100" math="0" shadow="0">
      <root>
        <mxCell id="0" />
        <mxCell id="1" parent="0" />
        <mxCell id="1Ggugu5X2JWlQAV3B51M-1" value="" style="rounded=0;whiteSpace=wrap;html=1;fillColor=none;dashed=1;sketch=1;curveFitting=1;jiggle=2;" parent="1" vertex="1">
          <mxGeometry x="60" y="256" width="120" height="344" as="geometry" />
        </mxCell>
        <mxCell id="1Ggugu5X2JWlQAV3B51M-4" value="" style="rounded=0;whiteSpace=wrap;html=1;fillColor=none;strokeColor=light-dark(#FFB570,#EDEDED);" parent="1" vertex="1">
          <mxGeometry x="224" y="290" width="140" height="309" as="geometry" />
        </mxCell>
        <mxCell id="1Ggugu5X2JWlQAV3B51M-5" value="&lt;b&gt;BRONZE&lt;/b&gt;" style="rounded=0;whiteSpace=wrap;html=1;fillColor=#ffe6cc;strokeColor=#d79b00;" parent="1" vertex="1">
          <mxGeometry x="224" y="251" width="140" height="30" as="geometry" />
        </mxCell>
        <mxCell id="1Ggugu5X2JWlQAV3B51M-10" value="&lt;b&gt;SOURCES&lt;/b&gt;" style="rounded=0;whiteSpace=wrap;html=1;strokeColor=none;sketch=1;curveFitting=1;jiggle=2;" parent="1" vertex="1">
          <mxGeometry x="70" y="240" width="100" height="30" as="geometry" />
        </mxCell>
        <mxCell id="1Ggugu5X2JWlQAV3B51M-13" value="CRM" style="image;aspect=fixed;html=1;points=[];align=center;fontSize=12;image=img/lib/azure2/general/Folder_Blank.svg;sketch=1;curveFitting=1;jiggle=2;" parent="1" vertex="1">
          <mxGeometry x="101.51999999999998" y="334" width="36.96" height="30" as="geometry" />
        </mxCell>
        <mxCell id="1Ggugu5X2JWlQAV3B51M-14" value="ERP" style="image;aspect=fixed;html=1;points=[];align=center;fontSize=12;image=img/lib/azure2/general/Folder_Blank.svg;sketch=1;curveFitting=1;jiggle=2;" parent="1" vertex="1">
          <mxGeometry x="101.51999999999998" y="451" width="36.96" height="30" as="geometry" />
        </mxCell>
        <mxCell id="1Ggugu5X2JWlQAV3B51M-49" value="" style="edgeStyle=orthogonalEdgeStyle;rounded=0;orthogonalLoop=1;jettySize=auto;html=1;" parent="1" source="1Ggugu5X2JWlQAV3B51M-15" target="1Ggugu5X2JWlQAV3B51M-45" edge="1">
          <mxGeometry relative="1" as="geometry" />
        </mxCell>
        <mxCell id="1Ggugu5X2JWlQAV3B51M-15" value="" style="image;aspect=fixed;html=1;points=[];align=center;fontSize=12;image=img/lib/azure2/general/Files.svg;sketch=1;curveFitting=1;jiggle=2;" parent="1" vertex="1">
          <mxGeometry x="129" y="344" width="24" height="26.25" as="geometry" />
        </mxCell>
        <mxCell id="1Ggugu5X2JWlQAV3B51M-54" style="edgeStyle=orthogonalEdgeStyle;rounded=0;orthogonalLoop=1;jettySize=auto;html=1;entryX=0;entryY=0.5;entryDx=0;entryDy=0;" parent="1" source="1Ggugu5X2JWlQAV3B51M-16" target="1Ggugu5X2JWlQAV3B51M-47" edge="1">
          <mxGeometry relative="1" as="geometry" />
        </mxCell>
        <mxCell id="1Ggugu5X2JWlQAV3B51M-56" style="edgeStyle=orthogonalEdgeStyle;rounded=0;orthogonalLoop=1;jettySize=auto;html=1;entryX=0;entryY=0.5;entryDx=0;entryDy=0;" parent="1" source="1Ggugu5X2JWlQAV3B51M-16" target="1Ggugu5X2JWlQAV3B51M-46" edge="1">
          <mxGeometry relative="1" as="geometry" />
        </mxCell>
        <mxCell id="1Ggugu5X2JWlQAV3B51M-57" style="edgeStyle=orthogonalEdgeStyle;rounded=0;orthogonalLoop=1;jettySize=auto;html=1;entryX=0;entryY=0.5;entryDx=0;entryDy=0;" parent="1" source="1Ggugu5X2JWlQAV3B51M-16" target="1Ggugu5X2JWlQAV3B51M-48" edge="1">
          <mxGeometry relative="1" as="geometry" />
        </mxCell>
        <mxCell id="1Ggugu5X2JWlQAV3B51M-16" value="" style="image;aspect=fixed;html=1;points=[];align=center;fontSize=12;image=img/lib/azure2/general/Files.svg;sketch=1;curveFitting=1;jiggle=2;" parent="1" vertex="1">
          <mxGeometry x="129" y="464.75" width="24" height="26.25" as="geometry" />
        </mxCell>
        <mxCell id="1Ggugu5X2JWlQAV3B51M-64" value="" style="edgeStyle=orthogonalEdgeStyle;rounded=0;orthogonalLoop=1;jettySize=auto;html=1;" parent="1" source="1Ggugu5X2JWlQAV3B51M-45" target="1Ggugu5X2JWlQAV3B51M-60" edge="1">
          <mxGeometry relative="1" as="geometry">
            <Array as="points">
              <mxPoint x="380" y="358" />
              <mxPoint x="380" y="358" />
            </Array>
          </mxGeometry>
        </mxCell>
        <mxCell id="1Ggugu5X2JWlQAV3B51M-87" value="" style="edgeStyle=orthogonalEdgeStyle;rounded=0;orthogonalLoop=1;jettySize=auto;html=1;" parent="1" source="1Ggugu5X2JWlQAV3B51M-45" target="1Ggugu5X2JWlQAV3B51M-5" edge="1">
          <mxGeometry relative="1" as="geometry" />
        </mxCell>
        <mxCell id="1Ggugu5X2JWlQAV3B51M-45" value="customer" style="rounded=0;whiteSpace=wrap;html=1;fillColor=#ffe6cc;strokeColor=#d79b00;" parent="1" vertex="1">
          <mxGeometry x="234" y="340" width="120" height="34" as="geometry" />
        </mxCell>
        <mxCell id="1Ggugu5X2JWlQAV3B51M-66" style="edgeStyle=orthogonalEdgeStyle;rounded=0;orthogonalLoop=1;jettySize=auto;html=1;exitX=1;exitY=0.5;exitDx=0;exitDy=0;entryX=0;entryY=0.5;entryDx=0;entryDy=0;" parent="1" edge="1">
          <mxGeometry relative="1" as="geometry">
            <mxPoint x="354" y="437.49" as="sourcePoint" />
            <mxPoint x="411" y="438.49" as="targetPoint" />
            <Array as="points">
              <mxPoint x="383" y="438" />
            </Array>
          </mxGeometry>
        </mxCell>
        <mxCell id="1Ggugu5X2JWlQAV3B51M-46" value="products" style="rounded=0;whiteSpace=wrap;html=1;fillColor=#ffe6cc;strokeColor=#d79b00;" parent="1" vertex="1">
          <mxGeometry x="234" y="420" width="120" height="34" as="geometry" />
        </mxCell>
        <mxCell id="1Ggugu5X2JWlQAV3B51M-67" style="edgeStyle=orthogonalEdgeStyle;rounded=0;orthogonalLoop=1;jettySize=auto;html=1;exitX=1;exitY=0.5;exitDx=0;exitDy=0;entryX=0;entryY=0.5;entryDx=0;entryDy=0;" parent="1" edge="1">
          <mxGeometry relative="1" as="geometry">
            <mxPoint x="354" y="477.49" as="sourcePoint" />
            <mxPoint x="411" y="478.49" as="targetPoint" />
          </mxGeometry>
        </mxCell>
        <mxCell id="1Ggugu5X2JWlQAV3B51M-47" value="categories" style="rounded=0;whiteSpace=wrap;html=1;fillColor=#ffe6cc;strokeColor=#d79b00;" parent="1" vertex="1">
          <mxGeometry x="234" y="460" width="120" height="34" as="geometry" />
        </mxCell>
        <mxCell id="1Ggugu5X2JWlQAV3B51M-68" style="edgeStyle=orthogonalEdgeStyle;rounded=0;orthogonalLoop=1;jettySize=auto;html=1;exitX=1;exitY=0.5;exitDx=0;exitDy=0;entryX=0;entryY=0.5;entryDx=0;entryDy=0;" parent="1" edge="1">
          <mxGeometry relative="1" as="geometry">
            <mxPoint x="354" y="517.49" as="sourcePoint" />
            <mxPoint x="411" y="518.49" as="targetPoint" />
          </mxGeometry>
        </mxCell>
        <mxCell id="1Ggugu5X2JWlQAV3B51M-48" value="orders" style="rounded=0;whiteSpace=wrap;html=1;fillColor=#ffe6cc;strokeColor=#d79b00;" parent="1" vertex="1">
          <mxGeometry x="234" y="500" width="120" height="34" as="geometry" />
        </mxCell>
        <mxCell id="1Ggugu5X2JWlQAV3B51M-58" value="" style="rounded=0;whiteSpace=wrap;html=1;fillColor=none;strokeColor=#666666;fontColor=#333333;" parent="1" vertex="1">
          <mxGeometry x="401" y="290" width="140" height="309" as="geometry" />
        </mxCell>
        <mxCell id="1Ggugu5X2JWlQAV3B51M-59" value="&lt;b&gt;SILVER&lt;/b&gt;" style="rounded=0;whiteSpace=wrap;html=1;fillColor=#f5f5f5;strokeColor=#666666;fontColor=#333333;" parent="1" vertex="1">
          <mxGeometry x="401" y="252" width="140" height="30" as="geometry" />
        </mxCell>
        <mxCell id="1Ggugu5X2JWlQAV3B51M-75" style="edgeStyle=orthogonalEdgeStyle;rounded=0;orthogonalLoop=1;jettySize=auto;html=1;exitX=1;exitY=0.5;exitDx=0;exitDy=0;entryX=0;entryY=0.5;entryDx=0;entryDy=0;" parent="1" edge="1">
          <mxGeometry relative="1" as="geometry">
            <mxPoint x="531" y="357.25000000000006" as="sourcePoint" />
            <mxPoint x="580" y="356.25000000000006" as="targetPoint" />
            <Array as="points">
              <mxPoint x="531" y="356" />
              <mxPoint x="556" y="356" />
            </Array>
          </mxGeometry>
        </mxCell>
        <mxCell id="1Ggugu5X2JWlQAV3B51M-60" value="customer" style="rounded=0;whiteSpace=wrap;html=1;fillColor=#f5f5f5;strokeColor=#666666;fontColor=#333333;" parent="1" vertex="1">
          <mxGeometry x="411" y="341" width="120" height="34" as="geometry" />
        </mxCell>
        <mxCell id="1Ggugu5X2JWlQAV3B51M-76" style="edgeStyle=orthogonalEdgeStyle;rounded=0;orthogonalLoop=1;jettySize=auto;html=1;exitX=1;exitY=0.5;exitDx=0;exitDy=0;" parent="1" source="1Ggugu5X2JWlQAV3B51M-61" target="1Ggugu5X2JWlQAV3B51M-72" edge="1">
          <mxGeometry relative="1" as="geometry" />
        </mxCell>
        <mxCell id="1Ggugu5X2JWlQAV3B51M-61" value="products" style="rounded=0;whiteSpace=wrap;html=1;fillColor=#f5f5f5;strokeColor=#666666;fontColor=#333333;" parent="1" vertex="1">
          <mxGeometry x="411" y="421" width="120" height="34" as="geometry" />
        </mxCell>
        <mxCell id="1Ggugu5X2JWlQAV3B51M-78" style="edgeStyle=orthogonalEdgeStyle;rounded=0;orthogonalLoop=1;jettySize=auto;html=1;exitX=1;exitY=0.5;exitDx=0;exitDy=0;entryX=0;entryY=0.5;entryDx=0;entryDy=0;" parent="1" source="1Ggugu5X2JWlQAV3B51M-62" target="1Ggugu5X2JWlQAV3B51M-72" edge="1">
          <mxGeometry relative="1" as="geometry" />
        </mxCell>
        <mxCell id="1Ggugu5X2JWlQAV3B51M-62" value="categories" style="rounded=0;whiteSpace=wrap;html=1;fillColor=#f5f5f5;strokeColor=#666666;fontColor=#333333;" parent="1" vertex="1">
          <mxGeometry x="411" y="461" width="120" height="34" as="geometry" />
        </mxCell>
        <mxCell id="1Ggugu5X2JWlQAV3B51M-79" style="edgeStyle=orthogonalEdgeStyle;rounded=0;orthogonalLoop=1;jettySize=auto;html=1;exitX=1;exitY=0.5;exitDx=0;exitDy=0;entryX=0;entryY=0.5;entryDx=0;entryDy=0;" parent="1" source="1Ggugu5X2JWlQAV3B51M-63" target="1Ggugu5X2JWlQAV3B51M-74" edge="1">
          <mxGeometry relative="1" as="geometry">
            <Array as="points">
              <mxPoint x="531" y="517" />
            </Array>
          </mxGeometry>
        </mxCell>
        <mxCell id="1Ggugu5X2JWlQAV3B51M-63" value="orders" style="rounded=0;whiteSpace=wrap;html=1;fillColor=#f5f5f5;strokeColor=#666666;fontColor=#333333;" parent="1" vertex="1">
          <mxGeometry x="411" y="501" width="120" height="34" as="geometry" />
        </mxCell>
        <mxCell id="1Ggugu5X2JWlQAV3B51M-69" value="" style="rounded=0;whiteSpace=wrap;html=1;fillColor=none;strokeColor=#d6b656;" parent="1" vertex="1">
          <mxGeometry x="570" y="290" width="140" height="309" as="geometry" />
        </mxCell>
        <mxCell id="1Ggugu5X2JWlQAV3B51M-70" value="&lt;b&gt;GOLD&lt;/b&gt;" style="rounded=0;whiteSpace=wrap;html=1;fillColor=#fff2cc;strokeColor=#d6b656;" parent="1" vertex="1">
          <mxGeometry x="570" y="251" width="140" height="30" as="geometry" />
        </mxCell>
        <mxCell id="1Ggugu5X2JWlQAV3B51M-71" value="dim_customers" style="rounded=0;whiteSpace=wrap;html=1;fillColor=#fff2cc;strokeColor=#d6b656;" parent="1" vertex="1">
          <mxGeometry x="580" y="340" width="120" height="34" as="geometry" />
        </mxCell>
        <mxCell id="1Ggugu5X2JWlQAV3B51M-72" value="dim_products" style="rounded=0;whiteSpace=wrap;html=1;fillColor=#fff2cc;strokeColor=#d6b656;" parent="1" vertex="1">
          <mxGeometry x="580" y="420" width="120" height="34" as="geometry" />
        </mxCell>
        <mxCell id="1Ggugu5X2JWlQAV3B51M-74" value="fact_orders" style="rounded=0;whiteSpace=wrap;html=1;fillColor=#fff2cc;strokeColor=#d6b656;" parent="1" vertex="1">
          <mxGeometry x="580" y="500" width="120" height="34" as="geometry" />
        </mxCell>
        <mxCell id="1Ggugu5X2JWlQAV3B51M-80" value="&lt;font face=&quot;Comic Sans MS&quot;&gt;&lt;b&gt;Table&lt;/b&gt;&lt;/font&gt;" style="text;html=1;align=center;verticalAlign=middle;whiteSpace=wrap;rounded=0;fillColor=#dae8fc;strokeColor=#6c8ebf;" parent="1" vertex="1">
          <mxGeometry x="269" y="324" width="54" height="20" as="geometry" />
        </mxCell>
        <mxCell id="1Ggugu5X2JWlQAV3B51M-88" value="&lt;font face=&quot;Comic Sans MS&quot;&gt;&lt;b&gt;Table&lt;/b&gt;&lt;/font&gt;" style="text;html=1;align=center;verticalAlign=middle;whiteSpace=wrap;rounded=0;fillColor=#dae8fc;strokeColor=#6c8ebf;" parent="1" vertex="1">
          <mxGeometry x="269" y="410" width="54" height="20" as="geometry" />
        </mxCell>
        <mxCell id="1Ggugu5X2JWlQAV3B51M-89" value="&lt;font face=&quot;Comic Sans MS&quot;&gt;&lt;b&gt;Table&lt;/b&gt;&lt;/font&gt;" style="text;html=1;align=center;verticalAlign=middle;whiteSpace=wrap;rounded=0;fillColor=#dae8fc;strokeColor=#6c8ebf;" parent="1" vertex="1">
          <mxGeometry x="269" y="451" width="54" height="20" as="geometry" />
        </mxCell>
        <mxCell id="1Ggugu5X2JWlQAV3B51M-90" value="&lt;font face=&quot;Comic Sans MS&quot;&gt;&lt;b&gt;Table&lt;/b&gt;&lt;/font&gt;" style="text;html=1;align=center;verticalAlign=middle;whiteSpace=wrap;rounded=0;fillColor=#dae8fc;strokeColor=#6c8ebf;" parent="1" vertex="1">
          <mxGeometry x="269" y="491" width="54" height="20" as="geometry" />
        </mxCell>
        <mxCell id="1Ggugu5X2JWlQAV3B51M-91" value="&lt;font face=&quot;Comic Sans MS&quot;&gt;&lt;b&gt;Table&lt;/b&gt;&lt;/font&gt;" style="text;html=1;align=center;verticalAlign=middle;whiteSpace=wrap;rounded=0;fillColor=#dae8fc;strokeColor=#6c8ebf;" parent="1" vertex="1">
          <mxGeometry x="444" y="324" width="54" height="20" as="geometry" />
        </mxCell>
        <mxCell id="1Ggugu5X2JWlQAV3B51M-92" value="&lt;font face=&quot;Comic Sans MS&quot;&gt;&lt;b&gt;Table&lt;/b&gt;&lt;/font&gt;" style="text;html=1;align=center;verticalAlign=middle;whiteSpace=wrap;rounded=0;fillColor=#dae8fc;strokeColor=#6c8ebf;" parent="1" vertex="1">
          <mxGeometry x="444" y="410" width="54" height="20" as="geometry" />
        </mxCell>
        <mxCell id="1Ggugu5X2JWlQAV3B51M-93" value="&lt;font face=&quot;Comic Sans MS&quot;&gt;&lt;b&gt;Table&lt;/b&gt;&lt;/font&gt;" style="text;html=1;align=center;verticalAlign=middle;whiteSpace=wrap;rounded=0;fillColor=#dae8fc;strokeColor=#6c8ebf;" parent="1" vertex="1">
          <mxGeometry x="444" y="451" width="54" height="20" as="geometry" />
        </mxCell>
        <mxCell id="1Ggugu5X2JWlQAV3B51M-94" value="&lt;font face=&quot;Comic Sans MS&quot;&gt;&lt;b&gt;Table&lt;/b&gt;&lt;/font&gt;" style="text;html=1;align=center;verticalAlign=middle;whiteSpace=wrap;rounded=0;fillColor=#dae8fc;strokeColor=#6c8ebf;" parent="1" vertex="1">
          <mxGeometry x="444" y="491" width="54" height="20" as="geometry" />
        </mxCell>
        <mxCell id="1Ggugu5X2JWlQAV3B51M-95" value="&lt;font face=&quot;Comic Sans MS&quot;&gt;&lt;b&gt;View&lt;/b&gt;&lt;/font&gt;" style="text;html=1;align=center;verticalAlign=middle;whiteSpace=wrap;rounded=0;fillColor=#d5e8d4;strokeColor=#82b366;" parent="1" vertex="1">
          <mxGeometry x="613" y="324" width="54" height="20" as="geometry" />
        </mxCell>
        <mxCell id="1Ggugu5X2JWlQAV3B51M-99" value="&lt;font face=&quot;Comic Sans MS&quot;&gt;&lt;b&gt;View&lt;/b&gt;&lt;/font&gt;" style="text;html=1;align=center;verticalAlign=middle;whiteSpace=wrap;rounded=0;fillColor=#d5e8d4;strokeColor=#82b366;" parent="1" vertex="1">
          <mxGeometry x="613" y="410" width="54" height="20" as="geometry" />
        </mxCell>
        <mxCell id="1Ggugu5X2JWlQAV3B51M-100" value="&lt;font face=&quot;Comic Sans MS&quot;&gt;&lt;b&gt;View&lt;/b&gt;&lt;/font&gt;" style="text;html=1;align=center;verticalAlign=middle;whiteSpace=wrap;rounded=0;fillColor=#d5e8d4;strokeColor=#82b366;" parent="1" vertex="1">
          <mxGeometry x="613" y="481" width="54" height="20" as="geometry" />
        </mxCell>
      </root>
    </mxGraphModel>
  </diagram>
</mxfile>
